<svg xmlns="http://www.w3.org/2000/svg" version="1.1" xmlns:xlink="http://www.w3.org/1999/xlink" xmlns:svgjs="http://svgjs.dev/svgjs" viewBox="0 0 800 800"><defs><filter id="bbburst-blur-1" x="-100%" y="-100%" width="400%" height="400%"><feGaussianBlur in="SourceGraphic" stdDeviation="1"></feGaussianBlur></filter><filter id="bbburst-blur-2" x="-100%" y="-100%" width="400%" height="400%"><feGaussianBlur in="SourceGraphic" stdDeviation="2"></feGaussianBlur></filter><filter id="bbburst-blur-3" x="-100%" y="-100%" width="400%" height="400%"><feGaussianBlur in="SourceGraphic" stdDeviation="4"></feGaussianBlur></filter><filter id="bbburst-blur-4" x="-100%" y="-100%" width="400%" height="400%"><feGaussianBlur in="SourceGraphic" stdDeviation="12"></feGaussianBlur></filter><symbol id="bbburst-shape-1" viewBox="0 0 194 167"><path d="m97 0 96.129 166.5H.871L97 0Z"></path></symbol><symbol id="bbburst-shape-4" viewBox="0 0 149 143"><path d="M71.647 2.781c.898-2.764 4.808-2.764 5.706 0l15.445 47.534a3 3 0 0 0 2.853 2.073h49.98c2.906 0 4.115 3.719 1.764 5.427L106.96 87.193a2.999 2.999 0 0 0-1.09 3.354l15.445 47.534c.898 2.764-2.266 5.062-4.617 3.354l-40.435-29.378a3 3 0 0 0-3.526 0l-40.435 29.378c-2.351 1.708-5.515-.59-4.617-3.354L43.13 90.547a3 3 0 0 0-1.09-3.354L1.605 57.815c-2.35-1.708-1.142-5.427 1.764-5.427h49.98a3 3 0 0 0 2.853-2.073L71.647 2.781Z"></path></symbol><symbol id="bbburst-shape-6" viewBox="0 0 133 116"><path d="M59.7487 10.2513c-13.6683-13.66839-35.8291-13.66839-49.4974 0-13.66839 13.6683-13.66839 35.8291 0 49.4974l49.4974-49.4974ZM66.5 66.5 41.7513 91.2487 66.5 115.997l24.7487-24.7483L66.5 66.5Zm56.249-6.7513c13.668-13.6683 13.668-35.8291 0-49.4974-13.669-13.66839-35.8294-13.66839-49.4977 0l49.4977 49.4974Zm-112.4977 0 31.5 31.5 49.4974-49.4974-31.5-31.5-49.4974 49.4974Zm80.9974 31.5 31.5003-31.5-49.4977-49.4974-31.5 31.5 49.4974 49.4974Z"></path></symbol><symbol id="bbburst-shape-8" viewBox="0 0 87 168"><path d="m12 12 31.2546 18.0749c16.4102 9.4902 20.014 31.6325 7.4603 45.8369L36.3296 92.1884c-12.5684 14.2206-8.9394 36.3916 7.5068 45.8636L75 156" stroke-width="14" stroke-linecap="round" stroke-linejoin="round"></path></symbol><symbol id="bbburst-shape-10" viewBox="0 0 145 145"><circle cx="72.5" cy="72.5" r="61.5" fill="none" stroke-width="22"></circle></symbol></defs><use xlink:href="#bbburst-shape-1" width="30.547657220114353" opacity="0.49437641748375494" transform="matrix(0.9457474967203997,0.3249025583880458,-0.3249025583880458,0.9457474967203997,449.68700310171494,234.5793721671222)" fill="#ffbd9b" filter="url(#bbburst-blur-2)"></use><use xlink:href="#bbburst-shape-10" width="36.46801188891266" opacity="0.36479056172404434" transform="matrix(0.980431454793486,-0.19686076920384274,0.19686076920384274,0.980431454793486,22.436232048845568,64.12728344392696)" fill="none" stroke="#00a19d" filter="url(#bbburst-blur-2)"></use><use xlink:href="#bbburst-shape-4" width="41.09586912778521" opacity="0.12880356113929436" transform="matrix(1.1768317946275404,-0.4213869090915409,0.4213869090915409,1.1768317946275404,-156.1602629254169,-209.0189272682905)" fill="#ffa6d5" filter="url(#bbburst-blur-3)"></use><use xlink:href="#bbburst-shape-1" width="40.82392316078872" opacity="0.31700743781577767" transform="matrix(1.2089170333631793,-0.3178358168054216,0.3178358168054216,1.2089170333631793,-28.091084753532087,-211.63305385081634)" fill="#ffa6d5" filter="url(#bbburst-blur-3)"></use><use xlink:href="#bbburst-shape-4" width="20.324708578627206" opacity="0.7536918273384604" transform="matrix(0.9919793248243726,0.12640023386442772,-0.12640023386442772,0.9919793248243726,499.63540223899025,95.67294727640768)" fill="#ffbd9b" filter="url(#bbburst-blur-1)"></use><use xlink:href="#bbburst-shape-10" width="14.955209793579872" opacity="0.9222327469247317" transform="matrix(0.9999992454369945,-0.0012284646684874473,0.0012284646684874473,0.9999992454369945,394.43941134010373,34.921779613989486)" fill="none" stroke="#2c2891"></use><use xlink:href="#bbburst-shape-8" width="27.407667747405917" opacity="0.35772476013366405" transform="matrix(0.8020107449517277,0.5973096056334393,-0.5973096056334393,0.8020107449517277,663.1852571845345,-215.8556987536046)" fill="none" stroke="#00a19d" filter="url(#bbburst-blur-2)"></use><use xlink:href="#bbburst-shape-10" width="23.93672491465459" opacity="0.617487795320939" transform="matrix(0.9145001633500153,0.40458553018217963,-0.40458553018217963,0.9145001633500153,612.3824484448364,190.12922185213603)" fill="none" stroke="#ffa6d5" filter="url(#bbburst-blur-1)"></use><use xlink:href="#bbburst-shape-4" width="29.888477693542562" opacity="0.3458061310614535" transform="matrix(0.8350919574157889,0.5501103731611197,-0.5501103731611197,0.8350919574157889,594.0576848735801,351.84278672765186)" fill="#2c2891" filter="url(#bbburst-blur-2)"></use><use xlink:href="#bbburst-shape-4" width="10.445391584188938" opacity="0.9547139728931328" transform="matrix(0.7265706589374277,-0.6870917533861342,0.6870917533861342,0.7265706589374277,116.86723983646385,93.09323218882724)" fill="#2c2891"></use><use xlink:href="#bbburst-shape-4" width="24.337841246114277" opacity="0.16620923500268714" transform="matrix(1.0205816513889414,-0.721743093384496,0.721743093384496,1.0205816513889414,186.06657070783916,365.51286986379824)" fill="#ffa6d5" filter="url(#bbburst-blur-3)"></use><use xlink:href="#bbburst-shape-4" width="16.180289194798966" opacity="0.701549706188989" transform="matrix(0.7842184244900879,0.6204848609678436,-0.6204848609678436,0.7842184244900879,531.5181064673252,4.713235896170659)" fill="#00a19d" filter="url(#bbburst-blur-1)"></use><use xlink:href="#bbburst-shape-6" width="29.57428903845805" opacity="-0.03102722949252712" transform="matrix(1.3915536147328371,1.0611684773512522,-1.0611684773512522,1.3915536147328371,437.7115828310702,-457.2238358699012)" fill="#00a19d" filter="url(#bbburst-blur-4)"></use><use xlink:href="#bbburst-shape-1" width="42.240147358154566" opacity="0.3156879154576264" transform="matrix(0.9908643340824428,-0.7620287864925822,0.7620287864925822,0.9908643340824428,345.3962000151339,165.86978711817318)" fill="#00a19d" filter="url(#bbburst-blur-3)"></use><use xlink:href="#bbburst-shape-8" width="33.316987573583916" opacity="0.24872643672795913" transform="matrix(1.1613938328174054,-0.46223842883699856,0.46223842883699856,1.1613938328174054,423.7722470910262,192.74779925642088)" fill="none" stroke="#ffbd9b" filter="url(#bbburst-blur-3)"></use><use xlink:href="#bbburst-shape-4" width="31.74786878219358" opacity="0.3055551306022475" transform="matrix(1.1997856186977722,-0.35073418591007643,0.35073418591007643,1.1997856186977722,108.02616813508624,208.63964853757648)" fill="#ffa6d5" filter="url(#bbburst-blur-3)"></use><use xlink:href="#bbburst-shape-10" width="39.21195955569209" opacity="-0.0752034286008112" transform="matrix(1.6904822901464582,0.45251478064388817,-0.45251478064388817,1.6904822901464582,888.0253910692801,59.016103527701375)" fill="none" stroke="#00a19d" filter="url(#bbburst-blur-4)"></use><use xlink:href="#bbburst-shape-4" width="29.963860150818377" opacity="0.6093179070069906" transform="matrix(0.9385728677961307,0.3450811090699502,-0.3450811090699502,0.9385728677961307,348.15603588610725,18.677281582925445)" fill="#ffa6d5" filter="url(#bbburst-blur-1)"></use><use xlink:href="#bbburst-shape-10" width="34.82105793728665" opacity="0.19315181995118136" transform="matrix(1.1309397424632217,-0.5324239841679014,0.5324239841679014,1.1309397424632217,530.4200278439984,-44.24996371568875)" fill="none" stroke="#00a19d" filter="url(#bbburst-blur-3)"></use><use xlink:href="#bbburst-shape-10" width="32.840447412952436" opacity="0.5005133204953557" transform="matrix(0.8013995229325775,0.5981294213156857,-0.5981294213156857,0.8013995229325775,653.8637748295117,292.6655574455289)" fill="none" stroke="#2c2891" filter="url(#bbburst-blur-2)"></use><use xlink:href="#bbburst-shape-6" width="32.9171646727653" opacity="0.1551526301271463" transform="matrix(1.00530599861024,-0.7428727005068017,0.7428727005068017,1.00530599861024,-214.1353331693193,-222.861645332296)" fill="#ffa6d5" filter="url(#bbburst-blur-3)"></use><use xlink:href="#bbburst-shape-8" width="23.478900089083915" opacity="0.624255111099378" transform="matrix(0.9205151061983998,-0.3907069736523123,0.3907069736523123,0.9205151061983998,355.0837585339028,153.2720016862972)" fill="none" stroke="#ffa6d5" filter="url(#bbburst-blur-1)"></use><use xlink:href="#bbburst-shape-1" width="26.793816164657624" opacity="0.4683384292513465" transform="matrix(0.9500354945886392,-0.3121418892454513,0.3121418892454513,0.9500354945886392,351.2762293029201,-197.93743771503873)" fill="#ff5c58" filter="url(#bbburst-blur-2)"></use><use xlink:href="#bbburst-shape-6" width="27.388472187388018" opacity="0.4646250994664365" transform="matrix(0.9999418607224183,0.01078309672532447,-0.01078309672532447,0.9999418607224183,189.40631579115623,-132.61923388453738)" fill="#2c2891" filter="url(#bbburst-blur-2)"></use><use xlink:href="#bbburst-shape-10" width="27.530938982646255" opacity="0.1054708495384431" transform="matrix(1.7036387547671086,0.40014371575169816,-0.40014371575169816,1.7036387547671086,370.18454325371897,-653.4889763293061)" fill="none" stroke="#ffbd9b" filter="url(#bbburst-blur-4)"></use><use xlink:href="#bbburst-shape-1" width="10.82113149406643" opacity="0.9570869451859132" transform="matrix(0.7442286694040606,-0.6679249116757523,0.6679249116757523,0.7442286694040606,112.13737613448296,115.67160450833586)" fill="#2c2891"></use><use xlink:href="#bbburst-shape-10" width="21.212780151935657" opacity="0.5520897830826219" transform="matrix(0.9996794074878542,-0.02531960198606321,0.02531960198606321,0.9996794074878542,325.7435331770859,-193.92582572896976)" fill="none" stroke="#00a19d" filter="url(#bbburst-blur-2)"></use><use xlink:href="#bbburst-shape-4" width="30.052392926412583" opacity="0.41664395278963484" transform="matrix(0.959362117809462,-0.2821778285268774,0.2821778285268774,0.959362117809462,519.6282400656434,-68.6324687963808)" fill="#2c2891" filter="url(#bbburst-blur-2)"></use><use xlink:href="#bbburst-shape-1" width="44.669063073439354" opacity="0.2112768402314319" transform="matrix(1.2334262652355297,-0.2028784074935846,0.2028784074935846,1.2334262652355297,43.707796399191494,165.52296363381572)" fill="#2c2891" filter="url(#bbburst-blur-3)"></use><use xlink:href="#bbburst-shape-8" width="27.375791070599945" opacity="0.4084744307012107" transform="matrix(0.7099009919336816,0.7043014849136517,-0.7043014849136517,0.7099009919336816,538.9740909204265,-124.16190304955015)" fill="none" stroke="#ffbd9b" filter="url(#bbburst-blur-2)"></use><use xlink:href="#bbburst-shape-6" width="20.162279209887625" opacity="0.6780495911142428" transform="matrix(0.9883627683614283,-0.15211521329878067,0.15211521329878067,0.9883627683614283,196.42317737726245,64.17551630243014)" fill="#ffa6d5" filter="url(#bbburst-blur-1)"></use><use xlink:href="#bbburst-shape-6" width="24.293915387094117" opacity="0.5399912642663025" transform="matrix(0.9761608455713586,0.21704838993507883,-0.21704838993507883,0.9761608455713586,659.0492194525175,-87.77097759583023)" fill="#ff5c58" filter="url(#bbburst-blur-2)"></use><use xlink:href="#bbburst-shape-4" width="22.637874102584554" opacity="0.7550969957901336" transform="matrix(0.9807605473501239,-0.19521462230449207,0.19521462230449207,0.9807605473501239,406.47980928337836,-44.7924366504314)" fill="#00a19d" filter="url(#bbburst-blur-1)"></use><use xlink:href="#bbburst-shape-6" width="14.273693682898578" opacity="0.7589054117224346" transform="matrix(0.858956589299451,0.5120484134328065,-0.5120484134328065,0.858956589299451,626.8526878588854,-52.0102231682792)" fill="#ffbd9b" filter="url(#bbburst-blur-1)"></use><use xlink:href="#bbburst-shape-1" width="25.642810526546537" opacity="0.31118601192349915" transform="matrix(0.9292472919338599,-0.8360618819403189,0.8360618819403189,0.9292472919338599,155.924837626333,331.671960009882)" fill="#00a19d" filter="url(#bbburst-blur-3)"></use><use xlink:href="#bbburst-shape-1" width="12.998905748118794" opacity="0.9454614600263744" transform="matrix(0.8239471084984875,0.5666667119189035,-0.5666667119189035,0.8239471084984875,644.4954675964352,74.77622379918131)" fill="#2c2891"></use><use xlink:href="#bbburst-shape-4" width="21.03289522146658" opacity="0.7485594019872379" transform="matrix(0.8247376784440894,-0.5655154832139025,0.5655154832139025,0.8247376784440894,278.27494944240607,77.08655960746688)" fill="#2c2891" filter="url(#bbburst-blur-1)"></use><use xlink:href="#bbburst-shape-8" width="13.059483943271179" opacity="0.9197702837302981" transform="matrix(0.7551449266624213,0.6555578843519514,-0.6555578843519514,0.7551449266624213,676.5393680848866,63.11632371333559)" fill="none" stroke="#00a19d"></use><use xlink:href="#bbburst-shape-10" width="39.710655984684735" opacity="0.30980165751722644" transform="matrix(1.237596979873714,-0.17565225705199972,0.17565225705199972,1.237596979873714,456.27596466547993,-362.9024521018423)" fill="none" stroke="#00a19d" filter="url(#bbburst-blur-3)"></use><use xlink:href="#bbburst-shape-6" width="9.51298529321901" opacity="0.8973547740756178" transform="matrix(0.7184667375016323,0.6955613180042151,-0.6955613180042151,0.7184667375016323,719.2619653078057,96.7625833467643)" fill="#ff5c58"></use><use xlink:href="#bbburst-shape-4" width="31.91365569865244" opacity="0.19405463485959606" transform="matrix(1.0417497472954216,0.6908382328808427,-0.6908382328808427,1.0417497472954216,630.7437556551433,-389.21157901122115)" fill="#00a19d" filter="url(#bbburst-blur-3)"></use><use xlink:href="#bbburst-shape-1" width="29.77787820556066" opacity="0.0972792598840797" transform="matrix(1.5591915052092866,0.7946205698842681,-0.7946205698842681,1.5591915052092866,497.9598149389751,120.00914402206558)" fill="#2c2891" filter="url(#bbburst-blur-4)"></use><use xlink:href="#bbburst-shape-8" width="14.379416784569072" opacity="0.79330692503819" transform="matrix(0.8855842207499283,0.4644788347801678,-0.4644788347801678,0.8855842207499283,575.3127547354065,-50.49411413311344)" fill="none" stroke="#ff5c58"></use><use xlink:href="#bbburst-shape-10" width="18.19338969562883" opacity="0.8216479045865613" transform="matrix(0.9118718773316504,-0.41047494361002285,0.41047494361002285,0.9118718773316504,152.82256003186873,9.617600216317555)" fill="none" stroke="#2c2891"></use><use xlink:href="#bbburst-shape-4" width="19.80052788324121" opacity="0.6943678495833054" transform="matrix(0.9484595840437386,0.3168981183844082,-0.3168981183844082,0.9484595840437386,436.5181058509071,-93.76848642524641)" fill="#ff5c58" filter="url(#bbburst-blur-1)"></use><use xlink:href="#bbburst-shape-10" width="22.294872504977278" opacity="0.5657142411419369" transform="matrix(0.9181274329020593,-0.39628527218744136,0.39628527218744136,0.9181274329020593,128.1086950340819,-128.82730479568372)" fill="none" stroke="#ffa6d5" filter="url(#bbburst-blur-1)"></use><use xlink:href="#bbburst-shape-10" width="10.28050667059314" opacity="0.8428407103536795" transform="matrix(0.9970926448538009,0.07619880299881428,-0.07619880299881428,0.9970926448538009,400.4823925800978,-65.43258083340834)" fill="none" stroke="#00a19d"></use><use xlink:href="#bbburst-shape-6" width="16.154218968319338" opacity="0.872762618208113" transform="matrix(0.9017995714010356,-0.4321545244711762,0.4321545244711762,0.9017995714010356,182.6858004654633,86.3236655351173)" fill="#00a19d"></use><use xlink:href="#bbburst-shape-10" width="29.19843660509927" opacity="0.6432697968411129" transform="matrix(0.7612348641993361,0.6484762767653249,-0.6484762767653249,0.7612348641993361,803.031022845622,128.7078214218743)" fill="none" stroke="#2c2891" filter="url(#bbburst-blur-1)"></use><use xlink:href="#bbburst-shape-4" width="16.31189963906875" opacity="0.8284004915004397" transform="matrix(0.8597150732410642,-0.5107739155850772,0.5107739155850772,0.8597150732410642,264.4984066292737,45.61602138072152)" fill="#ffa6d5"></use><use xlink:href="#bbburst-shape-4" width="26.444500656701926" opacity="0.7260857952901452" transform="matrix(0.9398998274456584,-0.341450310246779,0.341450310246779,0.9398998274456584,180.44707125798843,129.64959619960393)" fill="#ff5c58" filter="url(#bbburst-blur-1)"></use><use xlink:href="#bbburst-shape-8" width="39.63938021222864" opacity="0.08530881799192636" transform="matrix(1.4529636931151795,-0.9753955641118623,0.9753955641118623,1.4529636931151795,199.4315874295463,187.04585079286494)" fill="none" stroke="#00a19d" filter="url(#bbburst-blur-4)"></use><use xlink:href="#bbburst-shape-4" width="32.95994614589501" opacity="0.2787866462596663" transform="matrix(1.161760909599519,0.46131506470794825,-0.46131506470794825,1.161760909599519,466.5159968337732,-381.39780781233003)" fill="#00a19d" filter="url(#bbburst-blur-3)"></use><use xlink:href="#bbburst-shape-10" width="17.218854941566608" opacity="0.7477553574865917" transform="matrix(0.9071454384738682,0.4208172447227577,-0.4208172447227577,0.9071454384738682,659.6107585012086,88.88078906598355)" fill="none" stroke="#2c2891" filter="url(#bbburst-blur-1)"></use><use xlink:href="#bbburst-shape-10" width="24.29116054058019" opacity="0.5430840137067122" transform="matrix(0.8485048770312794,-0.5291875599956346,0.5291875599956346,0.8485048770312794,195.03239609964245,-137.8817905646423)" fill="none" stroke="#2c2891" filter="url(#bbburst-blur-2)"></use><use xlink:href="#bbburst-shape-4" width="29.94428637697498" opacity="0.4994288291946837" transform="matrix(0.9636526425844615,0.2671583508707602,-0.2671583508707602,0.9636526425844615,701.9610056234553,93.24944989611578)" fill="#ff5c58" filter="url(#bbburst-blur-2)"></use><use xlink:href="#bbburst-shape-8" width="39.72077610607013" opacity="0.2514021260027166" transform="matrix(0.9288092883842092,-0.8365484479760985,0.8365484479760985,0.9288092883842092,-285.86962233818963,-7.086440301670052)" fill="none" stroke="#ffa6d5" filter="url(#bbburst-blur-3)"></use><use xlink:href="#bbburst-shape-1" width="26.49689034046664" opacity="0.43745238785236906" transform="matrix(0.7328478999761359,-0.6803925010613856,0.6803925010613856,0.7328478999761359,243.26765329351508,335.969252508646)" fill="#ffbd9b" filter="url(#bbburst-blur-2)"></use><use xlink:href="#bbburst-shape-6" width="23.193164364089274" opacity="0.6377070824730582" transform="matrix(0.7835024412733554,0.6213887064621404,-0.6213887064621404,0.7835024412733554,767.5348686650999,-21.495807349462837)" fill="#00a19d" filter="url(#bbburst-blur-1)"></use><use xlink:href="#bbburst-shape-6" width="24.355090718468006" opacity="0.5268991465924374" transform="matrix(0.9563350843524568,-0.29227248662263655,0.29227248662263655,0.9563350843524568,484.17341059190164,12.588400282955604)" fill="#00a19d" filter="url(#bbburst-blur-2)"></use><use xlink:href="#bbburst-shape-10" width="18.116938114569336" opacity="0.8476392572270492" transform="matrix(0.921977849582061,-0.38724261759269024,0.38724261759269024,0.921977849582061,300.2886404090328,60.48086777671165)" fill="none" stroke="#ffa6d5"></use><use xlink:href="#bbburst-shape-10" width="18.42807645786722" opacity="0.7171226444612259" transform="matrix(0.967417921811066,-0.2531848426718278,0.2531848426718278,0.967417921811066,166.82999739066184,-17.487583814769494)" fill="none" stroke="#00a19d" filter="url(#bbburst-blur-1)"></use><use xlink:href="#bbburst-shape-10" width="38.384633582839186" opacity="-0.06006864865175121" transform="matrix(1.5002217832135447,0.9010186464061507,-0.9010186464061507,1.5002217832135447,418.5997393531465,-577.3536923243782)" fill="none" stroke="#ffbd9b" filter="url(#bbburst-blur-4)"></use><use xlink:href="#bbburst-shape-1" width="37.45911427486242" opacity="0.18923635144613105" transform="matrix(1.0020046869881984,-0.7473196151939827,0.7473196151939827,1.0020046869881984,-281.35230485295824,42.19129974535804)" fill="#2c2891" filter="url(#bbburst-blur-3)"></use><use xlink:href="#bbburst-shape-1" width="44.23263942195818" opacity="0.0772773196579436" transform="matrix(1.5462000656177801,-0.8196129312569271,0.8196129312569271,1.5462000656177801,381.3594952552283,33.229792373357554)" fill="#2c2891" filter="url(#bbburst-blur-4)"></use><use xlink:href="#bbburst-shape-10" width="20.539039428201118" opacity="0.6391340804228876" transform="matrix(0.9192582284639356,0.39365506398539685,-0.39365506398539685,0.9192582284639356,502.5497122394844,184.14730118650584)" fill="none" stroke="#00a19d" filter="url(#bbburst-blur-1)"></use><use xlink:href="#bbburst-shape-4" width="47.188162916715584" opacity="0.05866265791062042" transform="matrix(1.564636444351445,-0.7838448807048928,0.7838448807048928,1.564636444351445,395.50582782270357,-451.77931140423567)" fill="#00a19d" filter="url(#bbburst-blur-4)"></use><use xlink:href="#bbburst-shape-6" width="34.384869257642585" opacity="0.46123606073886425" transform="matrix(0.9276557129472452,-0.3734365785998181,0.3734365785998181,0.9276557129472452,401.66797386460485,-140.40554278765697)" fill="#2c2891" filter="url(#bbburst-blur-2)"></use><use xlink:href="#bbburst-shape-10" width="10.935566113551364" opacity="0.8641309262455787" transform="matrix(0.8869620260683461,-0.46184235872506824,0.46184235872506824,0.8869620260683461,221.60420177517167,-12.367764702126806)" fill="none" stroke="#00a19d"></use><use xlink:href="#bbburst-shape-6" width="13.832542684023217" opacity="0.9103725293445015" transform="matrix(0.7581234877765757,-0.6521110160712517,0.6521110160712517,0.7581234877765757,95.32040519900079,89.5406283598345)" fill="#00a19d"></use><use xlink:href="#bbburst-shape-4" width="25.16406961833605" opacity="0.6561689282704997" transform="matrix(0.996163141253014,0.08751569007285318,-0.08751569007285318,0.996163141253014,573.2522175513641,-34.247789163608616)" fill="#ffa6d5" filter="url(#bbburst-blur-1)"></use><use xlink:href="#bbburst-shape-8" width="29.630752657637494" opacity="0.4590863881018049" transform="matrix(0.7905010873594116,0.6124606361910845,-0.6124606361910845,0.7905010873594116,813.6730681746192,238.1413870927057)" fill="none" stroke="#ff5c58" filter="url(#bbburst-blur-2)"></use><use xlink:href="#bbburst-shape-6" width="38.513382693097455" opacity="0.16638347920275076" transform="matrix(1.2388708391435834,0.16643029748117907,-0.16643029748117907,1.2388708391435834,799.5301184931633,17.022582845145735)" fill="#ffa6d5" filter="url(#bbburst-blur-3)"></use><use xlink:href="#bbburst-shape-6" width="16.611321502077505" opacity="0.857553181564679" transform="matrix(0.9925586885511919,-0.12176719501383773,0.12176719501383773,0.9925586885511919,376.2179586928749,58.840483386142296)" fill="#2c2891"></use><use xlink:href="#bbburst-shape-6" width="35.751968904656614" opacity="0.33702407139858614" transform="matrix(0.9329132663422645,0.36010114896040957,-0.36010114896040957,0.9329132663422645,315.07746676731904,-189.22286442671114)" fill="#2c2891" filter="url(#bbburst-blur-2)"></use><use xlink:href="#bbburst-shape-10" width="22.132346488691407" opacity="0.725169825841987" transform="matrix(0.9880499682015448,-0.15413390391775056,0.15413390391775056,0.9880499682015448,334.1228731333632,129.977081454805)" fill="none" stroke="#2c2891" filter="url(#bbburst-blur-1)"></use><use xlink:href="#bbburst-shape-1" width="30.7459033280051" opacity="0.36702082089130006" transform="matrix(0.9955783398274938,-0.09393492037752188,0.09393492037752188,0.9955783398274938,630.4732853160059,32.36931602716351)" fill="#ffbd9b" filter="url(#bbburst-blur-2)"></use><use xlink:href="#bbburst-shape-6" width="28.080418521079032" opacity="0.5883680471038713" transform="matrix(0.8344775142441501,-0.5510419931556072,0.5510419931556072,0.8344775142441501,267.7899006753138,-82.02583802923218)" fill="#ff5c58" filter="url(#bbburst-blur-1)"></use><use xlink:href="#bbburst-shape-1" width="14.936563529291837" opacity="0.7108884279317584" transform="matrix(0.7511110196052992,-0.6601759130924785,0.6601759130924785,0.7511110196052992,207.01100378752466,-0.6020046182304668)" fill="#ffa6d5" filter="url(#bbburst-blur-1)"></use><use xlink:href="#bbburst-shape-8" width="47.75720123224202" opacity="0.17128896957308204" transform="matrix(1.2483613080826208,-0.06398472069367842,0.06398472069367842,1.2483613080826208,-2.077446856230857,39.610174249302474)" fill="none" stroke="#00a19d" filter="url(#bbburst-blur-3)"></use><use xlink:href="#bbburst-shape-4" width="31.951657646888656" opacity="0.5875114391458729" transform="matrix(0.8432651403827872,0.5374978167538897,-0.5374978167538897,0.8432651403827872,429.3909050446095,-15.360918823338181)" fill="#ffbd9b" filter="url(#bbburst-blur-1)"></use><use xlink:href="#bbburst-shape-10" width="33.204820313966565" opacity="0.08149706979939508" transform="matrix(1.523529078344886,0.8610221526985132,-0.8610221526985132,1.523529078344886,918.331066824172,-585.8550520724182)" fill="none" stroke="#ffa6d5" filter="url(#bbburst-blur-4)"></use><use xlink:href="#bbburst-shape-4" width="13.698016630112438" opacity="0.8558098806190669" transform="matrix(0.7945312010135301,0.6072233284517298,-0.6072233284517298,0.7945312010135301,573.3094445921043,87.90791970675048)" fill="#00a19d"></use><use xlink:href="#bbburst-shape-6" width="16.30208099696718" opacity="0.6654291754830003" transform="matrix(0.9720695348392152,-0.23469303235816733,0.23469303235816733,0.9720695348392152,254.89202942577924,-131.10838125018162)" fill="#ffbd9b" filter="url(#bbburst-blur-1)"></use><use xlink:href="#bbburst-shape-6" width="27.246093493800657" opacity="0.1841162964133778" transform="matrix(1.229050960795263,0.22788974476320958,-0.22788974476320958,1.229050960795263,418.8014414115063,268.18703785980404)" fill="#ff5c58" filter="url(#bbburst-blur-3)"></use><use xlink:href="#bbburst-shape-4" width="14.83273216496843" opacity="0.7978497662755948" transform="matrix(0.8286327314568969,-0.5597926369275342,0.5597926369275342,0.8286327314568969,220.0680027733829,-3.203347333313502)" fill="#ffa6d5"></use><use xlink:href="#bbburst-shape-6" width="28.61357638460217" opacity="0.13836759304211077" transform="matrix(1.2400939967420184,0.15705692994709516,-0.15705692994709516,1.2400939967420184,803.6115825783456,-245.91174262476179)" fill="#2c2891" filter="url(#bbburst-blur-3)"></use><use xlink:href="#bbburst-shape-10" width="16.557212810625057" opacity="0.7988666510132167" transform="matrix(0.8127942288213852,-0.5825508918495016,0.5825508918495016,0.8127942288213852,97.46259252416868,14.515314952614801)" fill="none" stroke="#ffa6d5"></use><use xlink:href="#bbburst-shape-6" width="47.209416174959166" opacity="0.3672407295988406" transform="matrix(0.8547928396566624,-0.5189693644828174,0.5189693644828174,0.8547928396566624,-69.5831256626463,220.67180484526097)" fill="#2c2891" filter="url(#bbburst-blur-2)"></use><use xlink:href="#bbburst-shape-10" width="34.66030161015185" opacity="0.4497134395075226" transform="matrix(0.804890828136764,0.5934229139334899,-0.5934229139334899,0.804890828136764,468.9559529526733,261.30766205156283)" fill="none" stroke="#ffa6d5" filter="url(#bbburst-blur-2)"></use><use xlink:href="#bbburst-shape-1" width="31.058389070068714" opacity="0.18565972057649394" transform="matrix(1.1478555460600086,0.4949016522292879,-0.4949016522292879,1.1478555460600086,665.7947488305601,-423.07788897063904)" fill="#2c2891" filter="url(#bbburst-blur-3)"></use><use xlink:href="#bbburst-shape-1" width="36.99728335369289" opacity="0.42394614782814855" transform="matrix(0.7314872872105906,-0.6818550789202137,0.6818550789202137,0.7314872872105906,73.6194059918007,-136.0443178353305)" fill="#ffbd9b" filter="url(#bbburst-blur-2)"></use><use xlink:href="#bbburst-shape-6" width="40.86994503393086" opacity="0.45604123635519134" transform="matrix(0.9708494248530101,-0.23969020476978103,0.23969020476978103,0.9708494248530101,42.754444135681155,-23.203926449344237)" fill="#2c2891" filter="url(#bbburst-blur-2)"></use><use xlink:href="#bbburst-shape-8" width="27.459804696771613" opacity="0.5873023235952258" transform="matrix(0.984391895028911,0.1759903321247772,-0.1759903321247772,0.984391895028911,317.0696625771388,126.06681790018547)" fill="none" stroke="#ffa6d5" filter="url(#bbburst-blur-1)"></use><use xlink:href="#bbburst-shape-10" width="44.61814393744124" opacity="0.14869437339450908" transform="matrix(1.1639439417619644,-0.45577900394338156,0.45577900394338156,1.1639439417619644,442.05208237214947,-345.393795749052)" fill="none" stroke="#2c2891" filter="url(#bbburst-blur-3)"></use><use xlink:href="#bbburst-shape-4" width="46.39124016283747" opacity="-0.07043466995734482" transform="matrix(1.5447519693593827,0.8223389527198068,-0.8223389527198068,1.5447519693593827,361.5792945510161,112.58201879295632)" fill="#2c2891" filter="url(#bbburst-blur-4)"></use><use xlink:href="#bbburst-shape-8" width="19.12550535170841" opacity="0.5696373053696011" transform="matrix(0.8076966891946089,-0.5895982176567932,0.5895982176567932,0.8076966891946089,15.171968012603685,-49.91560953138128)" fill="none" stroke="#ffbd9b" filter="url(#bbburst-blur-1)"></use><use xlink:href="#bbburst-shape-4" width="21.34431471986152" opacity="0.6821739130727997" transform="matrix(0.8031563532823728,-0.5957683041100461,0.5957683041100461,0.8031563532823728,152.67538379257348,-57.90983367571869)" fill="#00a19d" filter="url(#bbburst-blur-1)"></use><use xlink:href="#bbburst-shape-6" width="44.10899974615011" opacity="0.30308393134197975" transform="matrix(1.2288350754873483,-0.22905099268940765,0.22905099268940765,1.2288350754873483,531.7348593732357,-275.2254911117685)" fill="#ffa6d5" filter="url(#bbburst-blur-3)"></use><use xlink:href="#bbburst-shape-10" width="10.632441523605644" opacity="0.8494111820859056" transform="matrix(0.8859110438363155,-0.46385517395934045,0.46385517395934045,0.8859110438363155,259.7494969590269,2.363542454898891)" fill="none" stroke="#ffa6d5"></use><use xlink:href="#bbburst-shape-4" width="49.18025807589008" opacity="0.050894726501596765" transform="matrix(1.704261315980533,-0.39748379445243,0.39748379445243,1.704261315980533,-152.27039270359154,-29.079231914552906)" fill="#ffa6d5" filter="url(#bbburst-blur-4)"></use><use xlink:href="#bbburst-shape-6" width="12.951344309263748" opacity="0.7603019394053127" transform="matrix(0.9947640359695713,-0.1021983989186199,0.1021983989186199,0.9947640359695713,314.9273857770596,-98.28571546526086)" fill="#2c2891" filter="url(#bbburst-blur-1)"></use><use xlink:href="#bbburst-shape-6" width="22.866005059119892" opacity="0.6466166255679792" transform="matrix(0.8083514981781693,-0.5887001404731522,0.5887001404731522,0.8083514981781693,201.74486585405384,-68.69203052204375)" fill="#ffa6d5" filter="url(#bbburst-blur-1)"></use><use xlink:href="#bbburst-shape-4" width="19.08885967309655" opacity="0.7528948303477775" transform="matrix(0.9825847164131245,0.1858151637282049,-0.1858151637282049,0.9825847164131245,354.23323316531963,15.594116368286905)" fill="#ffbd9b" filter="url(#bbburst-blur-1)"></use><use xlink:href="#bbburst-shape-8" width="14.33871932413478" opacity="0.82606846315293" transform="matrix(0.9990549439302022,0.04346514705623929,-0.04346514705623929,0.9990549439302022,397.4541779261564,77.28694263765806)" fill="none" stroke="#00a19d"></use><use xlink:href="#bbburst-shape-1" width="11.958322579610392" opacity="0.8912112203150536" transform="matrix(0.9218223391135788,0.3876126611853257,-0.3876126611853257,0.9218223391135788,520.6007123977989,-10.527086287659301)" fill="#00a19d"></use><use xlink:href="#bbburst-shape-4" width="41.03863399079151" opacity="-0.08549162824709922" transform="matrix(1.3735934494782587,-1.084315929768819,1.084315929768819,1.3735934494782587,277.83536902006557,-478.14035219758796)" fill="#ffbd9b" filter="url(#bbburst-blur-4)"></use><use xlink:href="#bbburst-shape-1" width="28.033030666909777" opacity="0.2658953925427291" transform="matrix(1.161795869395567,0.46122701336261596,-0.46122701336261596,1.161795869395567,888.7456061566176,-150.97330532529566)" fill="#00a19d" filter="url(#bbburst-blur-3)"></use><use xlink:href="#bbburst-shape-4" width="37.341845604663796" opacity="0.1795799271355245" transform="matrix(0.9173978252686068,0.849047248504128,-0.849047248504128,0.9173978252686068,505.8502862352041,-281.74572865081194)" fill="#00a19d" filter="url(#bbburst-blur-3)"></use><use xlink:href="#bbburst-shape-4" width="15.372685113541733" opacity="0.7921053937648813" transform="matrix(0.835286819208228,0.5498144502075232,-0.5498144502075232,0.835286819208228,535.1708228826498,112.82717301416915)" fill="#ffa6d5"></use><use xlink:href="#bbburst-shape-1" width="38.6038308245671" opacity="0.5253430300944788" transform="matrix(0.9801662587794526,-0.19817695413516437,0.19817695413516437,0.9801662587794526,98.05646988759584,75.86619775559149)" fill="#00a19d" filter="url(#bbburst-blur-2)"></use></svg>